<svg width="1440" height="57" viewBox="0 0 1440 57" fill="none" xmlns="http://www.w3.org/2000/svg">
<mask id="mask0_5_146" style="mask-type:alpha" maskUnits="userSpaceOnUse" x="-20" y="0" width="1460" height="57">
<rect width="1460" height="57" transform="matrix(1 0 0 -1 -20 57)" fill="#D9D9D9"/>
</mask>
<g mask="url(#mask0_5_146)">
<path d="M51.4836 2C70.0038 2 86.6768 6.78994 98.6575 14.4277C110.661 22.0804 117.718 32.4071 117.718 43.5C117.718 54.5929 110.661 64.9196 98.6575 72.5723C86.6768 80.2101 70.0038 85 51.4836 85C32.9635 85 16.2905 80.2101 4.3098 72.5723C-7.6941 64.9196 -14.7507 54.5929 -14.7507 43.5C-14.7507 32.4071 -7.6941 22.0804 4.3098 14.4277C16.2905 6.78994 32.9635 2.00001 51.4836 2Z" stroke="#ACDD91" stroke-width="4"/>
<path d="M177.122 2C195.642 2 212.315 6.78994 224.295 14.4277C236.299 22.0804 243.356 32.4071 243.356 43.5C243.356 54.5929 236.299 64.9196 224.295 72.5723C212.315 80.2101 195.642 85 177.122 85C158.602 85 141.928 80.2101 129.948 72.5723C117.944 64.9196 110.887 54.5929 110.887 43.5C110.887 32.4071 117.944 22.0804 129.948 14.4277C141.928 6.78994 158.602 2.00001 177.122 2Z" stroke="#ACDD91" stroke-width="4"/>
<path d="M302.76 2C321.28 2 337.953 6.78994 349.933 14.4277C361.937 22.0804 368.994 32.4071 368.994 43.5C368.994 54.5929 361.937 64.9196 349.933 72.5723C337.953 80.2101 321.28 85 302.76 85C284.239 85 267.566 80.2101 255.586 72.5723C243.582 64.9196 236.525 54.5929 236.525 43.5C236.525 32.4071 243.582 22.0804 255.586 14.4277C267.566 6.78994 284.239 2.00001 302.76 2Z" stroke="#ACDD91" stroke-width="4"/>
<path d="M428.398 2C446.918 2 463.591 6.78994 475.571 14.4277C487.575 22.0804 494.632 32.4071 494.632 43.5C494.632 54.5929 487.575 64.9196 475.571 72.5723C463.591 80.2101 446.918 85 428.398 85C409.878 85 393.204 80.2101 381.224 72.5723C369.22 64.9196 362.163 54.5929 362.163 43.5C362.163 32.4071 369.22 22.0804 381.224 14.4277C393.204 6.78994 409.878 2.00001 428.398 2Z" stroke="#ACDD91" stroke-width="4"/>
<path d="M554.036 2C572.556 2 589.229 6.78994 601.209 14.4277C613.213 22.0804 620.27 32.4071 620.27 43.5C620.27 54.5929 613.213 64.9196 601.209 72.5723C589.229 80.2101 572.556 85 554.036 85C535.515 85 518.842 80.2101 506.862 72.5723C494.858 64.9196 487.801 54.5929 487.801 43.5C487.801 32.4071 494.858 22.0804 506.862 14.4277C518.842 6.78994 535.515 2.00001 554.036 2Z" stroke="#ACDD91" stroke-width="4"/>
<path d="M679.674 2C698.194 2 714.867 6.78994 726.847 14.4277C738.851 22.0804 745.908 32.4071 745.908 43.5C745.908 54.5929 738.851 64.9196 726.847 72.5723C714.867 80.2101 698.194 85 679.674 85C661.153 85 644.48 80.2101 632.5 72.5723C620.496 64.9196 613.439 54.5929 613.439 43.5C613.439 32.4071 620.496 22.0804 632.5 14.4277C644.48 6.78994 661.153 2.00001 679.674 2Z" stroke="#ACDD91" stroke-width="4"/>
<path d="M803.145 2C821.665 2 838.338 6.78994 850.319 14.4277C862.323 22.0804 869.38 32.4071 869.38 43.5C869.38 54.5929 862.323 64.9196 850.319 72.5723C838.338 80.2101 821.665 85 803.145 85C784.625 85 767.952 80.2101 755.971 72.5723C743.968 64.9196 736.911 54.5929 736.911 43.5C736.911 32.4071 743.968 22.0804 755.971 14.4277C767.952 6.78994 784.625 2.00001 803.145 2Z" stroke="#ACDD91" stroke-width="4"/>
<path d="M928.783 2C947.303 2 963.976 6.78994 975.957 14.4277C987.961 22.0804 995.018 32.4071 995.018 43.5C995.018 54.5929 987.961 64.9196 975.957 72.5723C963.976 80.2101 947.303 85 928.783 85C910.263 85 893.59 80.2101 881.609 72.5723C869.606 64.9196 862.549 54.5929 862.549 43.5C862.549 32.4071 869.606 22.0804 881.609 14.4277C893.59 6.78994 910.263 2.00001 928.783 2Z" stroke="#ACDD91" stroke-width="4"/>
<path d="M1054.42 2C1072.94 2 1089.61 6.78994 1101.6 14.4277C1113.6 22.0804 1120.66 32.4071 1120.66 43.5C1120.66 54.5929 1113.6 64.9196 1101.6 72.5723C1089.61 80.2101 1072.94 85 1054.42 85C1035.9 85 1019.23 80.2101 1007.25 72.5723C995.244 64.9196 988.187 54.5929 988.187 43.5C988.187 32.4071 995.244 22.0804 1007.25 14.4277C1019.23 6.78994 1035.9 2.00001 1054.42 2Z" stroke="#ACDD91" stroke-width="4"/>
<path d="M1180.06 2C1198.58 2 1215.25 6.78994 1227.23 14.4277C1239.24 22.0804 1246.29 32.4071 1246.29 43.5C1246.29 54.5929 1239.24 64.9196 1227.23 72.5723C1215.25 80.2101 1198.58 85 1180.06 85C1161.54 85 1144.87 80.2101 1132.89 72.5723C1120.88 64.9196 1113.82 54.5929 1113.82 43.5C1113.82 32.4071 1120.88 22.0804 1132.89 14.4277C1144.87 6.78994 1161.54 2.00001 1180.06 2Z" stroke="#ACDD91" stroke-width="4"/>
<path d="M1305.7 2C1324.22 2 1340.89 6.78994 1352.87 14.4277C1364.88 22.0804 1371.93 32.4071 1371.93 43.5C1371.93 54.5929 1364.88 64.9196 1352.87 72.5723C1340.89 80.2101 1324.22 85 1305.7 85C1287.18 85 1270.5 80.2101 1258.52 72.5723C1246.52 64.9196 1239.46 54.5929 1239.46 43.5C1239.46 32.4071 1246.52 22.0804 1258.52 14.4277C1270.5 6.78994 1287.18 2.00001 1305.7 2Z" stroke="#ACDD91" stroke-width="4"/>
<path d="M1431.34 2C1449.86 2 1466.53 6.78994 1478.51 14.4277C1490.51 22.0804 1497.57 32.4071 1497.57 43.5C1497.57 54.5929 1490.51 64.9196 1478.51 72.5723C1466.53 80.2101 1449.86 85 1431.34 85C1412.82 85 1396.14 80.2101 1384.16 72.5723C1372.16 64.9196 1365.1 54.5929 1365.1 43.5C1365.1 32.4071 1372.16 22.0804 1384.16 14.4277C1396.14 6.78994 1412.82 2.00001 1431.34 2Z" stroke="#ACDD91" stroke-width="4"/>
</g>
</svg>
