<svg width="450" height="57" viewBox="0 0 450 57" fill="none" xmlns="http://www.w3.org/2000/svg">
<mask id="mask0_5_105" style="mask-type:alpha" maskUnits="userSpaceOnUse" x="0" y="0" width="1352" height="57">
<rect width="1352" height="57" fill="#D9D9D9"/>
</mask>
<g mask="url(#mask0_5_105)">
<path d="M15 55C32.0427 55 47.3846 50.2268 58.4111 42.6133C69.4458 34.9941 76 24.6679 76 13.5C76 2.33205 69.4458 -7.99407 58.4111 -15.6133C47.3846 -23.2268 32.0427 -28 15 -28C-2.0427 -28 -17.3846 -23.2268 -28.4111 -15.6133C-39.4458 -7.99407 -46 2.33205 -46 13.5C-46 24.6679 -39.4458 34.9941 -28.4111 42.6133C-17.3846 50.2268 -2.0427 55 15 55Z" stroke="#ACDD91" stroke-width="4"/>
<path d="M131 55C148.043 55 163.385 50.2268 174.411 42.6133C185.446 34.9941 192 24.6679 192 13.5C192 2.33205 185.446 -7.99407 174.411 -15.6133C163.385 -23.2268 148.043 -28 131 -28C113.957 -28 98.6154 -23.2268 87.5889 -15.6133C76.5542 -7.99407 70 2.33205 70 13.5C70 24.6679 76.5542 34.9941 87.5889 42.6133C98.6154 50.2268 113.957 55 131 55Z" stroke="#ACDD91" stroke-width="4"/>
<path d="M247 55C264.043 55 279.385 50.2268 290.411 42.6133C301.446 34.9941 308 24.6679 308 13.5C308 2.33205 301.446 -7.99407 290.411 -15.6133C279.385 -23.2268 264.043 -28 247 -28C229.957 -28 214.615 -23.2268 203.589 -15.6133C192.554 -7.99407 186 2.33205 186 13.5C186 24.6679 192.554 34.9941 203.589 42.6133C214.615 50.2268 229.957 55 247 55Z" stroke="#ACDD91" stroke-width="4"/>
<path d="M363 55C380.043 55 395.385 50.2268 406.411 42.6133C417.446 34.9941 424 24.6679 424 13.5C424 2.33205 417.446 -7.99407 406.411 -15.6133C395.385 -23.2268 380.043 -28 363 -28C345.957 -28 330.615 -23.2268 319.589 -15.6133C308.554 -7.99407 302 2.33205 302 13.5C302 24.6679 308.554 34.9941 319.589 42.6133C330.615 50.2268 345.957 55 363 55Z" stroke="#ACDD91" stroke-width="4"/>
<path d="M479 55C496.043 55 511.385 50.2268 522.411 42.6133C533.446 34.9941 540 24.6679 540 13.5C540 2.33205 533.446 -7.99407 522.411 -15.6133C511.385 -23.2268 496.043 -28 479 -28C461.957 -28 446.615 -23.2268 435.589 -15.6133C424.554 -7.99407 418 2.33205 418 13.5C418 24.6679 424.554 34.9941 435.589 42.6133C446.615 50.2268 461.957 55 479 55Z" stroke="#ACDD91" stroke-width="4"/>
</g>
</svg>
