<svg width="418" height="57" viewBox="0 0 418 57" fill="none" xmlns="http://www.w3.org/2000/svg">
<mask id="mask0_5_104" style="mask-type:alpha" maskUnits="userSpaceOnUse" x="-930" y="0" width="1348" height="57">
<rect width="1348" height="57" transform="matrix(1 0 0 -1 -930 57)" fill="#D9D9D9"/>
</mask>
<g mask="url(#mask0_5_104)">
<path d="M-54 2C-36.9573 2 -21.6154 6.77323 -10.5889 14.3867C0.445849 22.0059 7 32.3321 7 43.5C7 54.6679 0.445849 64.9941 -10.5889 72.6133C-21.6154 80.2268 -36.9573 85 -54 85C-71.0427 85 -86.3846 80.2268 -97.4111 72.6133C-108.446 64.9941 -115 54.6679 -115 43.5C-115 32.3321 -108.446 22.0059 -97.4111 14.3867C-86.3846 6.77323 -71.0427 2 -54 2Z" stroke="#ACDD91" stroke-width="4"/>
<path d="M62 2C79.0427 2 94.3846 6.77323 105.411 14.3867C116.446 22.0059 123 32.3321 123 43.5C123 54.6679 116.446 64.9941 105.411 72.6133C94.3846 80.2268 79.0427 85 62 85C44.9573 85 29.6154 80.2268 18.5889 72.6133C7.55415 64.9941 1 54.6679 1 43.5C1 32.3321 7.55415 22.0059 18.5889 14.3867C29.6154 6.77323 44.9573 2 62 2Z" stroke="#ACDD91" stroke-width="4"/>
<path d="M178 2C195.043 2 210.385 6.77323 221.411 14.3867C232.446 22.0059 239 32.3321 239 43.5C239 54.6679 232.446 64.9941 221.411 72.6133C210.385 80.2268 195.043 85 178 85C160.957 85 145.615 80.2268 134.589 72.6133C123.554 64.9941 117 54.6679 117 43.5C117 32.3321 123.554 22.0059 134.589 14.3867C145.615 6.77323 160.957 2 178 2Z" stroke="#ACDD91" stroke-width="4"/>
<path d="M294 2C311.043 2 326.385 6.77323 337.411 14.3867C348.446 22.0059 355 32.3321 355 43.5C355 54.6679 348.446 64.9941 337.411 72.6133C326.385 80.2268 311.043 85 294 85C276.957 85 261.615 80.2268 250.589 72.6133C239.554 64.9941 233 54.6679 233 43.5C233 32.3321 239.554 22.0059 250.589 14.3867C261.615 6.77323 276.957 2 294 2Z" stroke="#ACDD91" stroke-width="4"/>
<path d="M410 2C427.043 2 442.385 6.77323 453.411 14.3867C464.446 22.0059 471 32.3321 471 43.5C471 54.6679 464.446 64.9941 453.411 72.6133C442.385 80.2268 427.043 85 410 85C392.957 85 377.615 80.2268 366.589 72.6133C355.554 64.9941 349 54.6679 349 43.5C349 32.3321 355.554 22.0059 366.589 14.3867C377.615 6.77323 392.957 2 410 2Z" stroke="#ACDD91" stroke-width="4"/>
</g>
</svg>
