<svg width="162" height="161" viewBox="0 0 162 161" fill="none" xmlns="http://www.w3.org/2000/svg">
<path d="M96.5573 7.17512C103.626 0.0205216 115.831 4.49146 116.605 14.5192V14.5192C117.173 21.8664 124.383 26.8539 131.491 24.9103V24.9103C141.138 22.2727 149.566 32.1754 145.206 41.1755V41.1755C142.001 47.7918 145.751 55.7116 152.869 57.5523V57.5523C162.532 60.051 164.892 72.835 156.613 78.4078V78.4078C150.518 82.5099 149.743 91.1844 155.007 96.3096V96.3096C162.183 103.297 157.715 115.496 147.723 116.194V116.194C140.394 116.706 135.382 123.829 137.385 130.897V130.897C140.106 140.5 130.045 148.734 121.055 144.399V144.399C114.433 141.207 106.454 144.83 104.627 151.951V151.951C102.141 161.638 89.3107 163.753 83.6506 155.508V155.508C79.4799 149.433 70.7541 148.583 65.5749 153.825V153.825C58.5063 160.979 46.3012 156.509 45.5268 146.481V146.481C44.9593 139.134 37.7492 134.146 30.641 136.09V136.09C20.9945 138.727 12.5662 128.825 16.9263 119.824V119.824C20.1316 113.208 16.3809 105.288 9.26319 103.448V103.448C-0.399425 100.949 -2.76025 88.165 5.51948 82.5922V82.5922C11.6142 78.4901 12.389 69.8156 7.12541 64.6904V64.6904C-0.0511652 57.7026 4.41725 45.5045 14.4095 44.806V44.806C21.7383 44.2936 26.7501 37.1712 24.7474 30.1028V30.1028C22.0267 20.5004 32.0868 12.2664 41.077 16.6006V16.6006C47.6994 19.7933 55.6785 16.1703 57.5056 9.0491V9.0491C59.9908 -0.637776 72.8215 -2.75289 78.4816 5.49185V5.49185C82.6523 11.5672 91.3781 12.4173 96.5573 7.17512V7.17512Z" fill="#082508"/>
</svg>
