<svg width="112" height="116" viewBox="0 0 112 116" fill="none" xmlns="http://www.w3.org/2000/svg">
<g filter="url(#filter0_d_5_46)">
<path d="M46.7169 6.68588C50.0786 -2.45813 63.1994 -1.88649 65.7531 7.51523L72.1981 31.2434C73.0303 34.3074 75.2682 36.7941 78.2278 37.9437L101.5 46.983C110.409 50.4435 109.852 63.2331 100.676 65.9056L76.7054 72.8868C73.657 73.7746 71.2114 76.0573 70.1158 79.0373L61.6317 102.115C58.2701 111.259 45.1492 110.687 42.5955 101.286L36.1506 77.5576C35.3183 74.4935 33.0805 72.0068 30.1209 70.8572L6.84873 61.8179C-2.06043 58.3574 -1.50323 45.5678 7.67313 42.8953L31.6432 35.9141C34.6916 35.0263 37.1372 32.7436 38.2328 29.7636L46.7169 6.68588Z" fill="white"/>
</g>
<defs>
<filter id="filter0_d_5_46" x="0.468964" y="0.135986" width="111.411" height="115.529" filterUnits="userSpaceOnUse" color-interpolation-filters="sRGB">
<feFlood flood-opacity="0" result="BackgroundImageFix"/>
<feColorMatrix in="SourceAlpha" type="matrix" values="0 0 0 0 0 0 0 0 0 0 0 0 0 0 0 0 0 0 127 0" result="hardAlpha"/>
<feOffset dx="2" dy="5"/>
<feGaussianBlur stdDeviation="1"/>
<feComposite in2="hardAlpha" operator="out"/>
<feColorMatrix type="matrix" values="0 0 0 0 0 0 0 0 0 0 0 0 0 0 0 0 0 0 0.25 0"/>
<feBlend mode="normal" in2="BackgroundImageFix" result="effect1_dropShadow_5_46"/>
<feBlend mode="normal" in="SourceGraphic" in2="effect1_dropShadow_5_46" result="shape"/>
</filter>
</defs>
</svg>
