<svg width="49" height="51" viewBox="0 0 49 51" fill="none" xmlns="http://www.w3.org/2000/svg">
<path d="M25.9271 1.80729C28.8936 -1.33459 34.1798 0.511878 34.5448 4.81748L35.2524 13.1629C35.4005 14.9096 36.4525 16.4512 38.025 17.2258L45.5831 20.9489C49.3708 22.8147 49.2835 28.2451 45.4378 29.9882L37.3991 33.6319C35.8494 34.3343 34.7632 35.7766 34.5162 37.4601L33.2397 46.1603C32.6178 50.3989 27.3016 51.9437 24.505 48.6984L19.1859 42.526C18.0201 41.1732 16.2213 40.5449 14.4667 40.8776L6.46133 42.3957C2.25232 43.1939 -0.945768 38.675 1.20672 34.971L5.62493 27.3682C6.47983 25.8971 6.52794 24.0922 5.75264 22.5776L1.73098 14.7212C-0.19298 10.9627 3.11993 6.65901 7.24557 7.55738L15.4779 9.34998C17.1908 9.72296 18.9738 9.17168 20.1773 7.89707L25.9271 1.80729Z" fill="#008E00"/>
</svg>
