<svg width="71" height="73" viewBox="0 0 71 73" fill="none" xmlns="http://www.w3.org/2000/svg">
<path d="M19.7212 7.24721C19.8293 1.03158 27.3818 -1.96959 31.7267 2.47658L40.3033 11.2533C42.1083 13.1004 44.7837 13.8036 47.2637 13.0827L59.1039 9.6408C64.9445 7.94299 70.0224 13.989 67.341 19.4485L61.652 31.0317C60.5464 33.2827 60.7295 35.9531 62.1319 38.0321L69.3267 48.6984C72.775 53.8104 68.4076 60.5608 62.3314 59.5106L50.5648 57.4769C47.973 57.029 45.3488 58.0718 43.7713 60.1765L36.6098 69.7316C32.9117 74.6659 25.1022 72.7542 24.1013 66.6697L22.0128 53.9743C21.6058 51.4997 19.906 49.432 17.557 48.5538L5.46932 44.0345C-0.227898 41.9045 -0.684793 34.0223 4.72816 31.2482L15.7014 25.6246C17.9998 24.4468 19.4629 22.099 19.5078 19.5168L19.7212 7.24721Z" fill="#ACDD91"/>
</svg>
